<svg xmlns="http://www.w3.org/2000/svg" viewBox="0 0 700 300" role="img" aria-label="Comparison of common global electric vehicle connector families"><rect width="700" height="300" rx="24" fill="#f7fafc"/><text x="350" y="36" text-anchor="middle" font-family="Arial" font-size="21" font-weight="700" fill="#173a60">COMMON CONNECTOR FAMILIES — SHAPE IS ONLY THE FIRST CHECK</text><g fill="#fff" stroke="#315774" stroke-width="5"><circle cx="80" cy="130" r="48"/><circle cx="188" cy="130" r="48"/><path d="M275 82h78l14 33v77h-106v-77z"/><circle cx="458" cy="130" r="48"/><path d="M540 83q54-27 92 0v94q-38 27-92 0z"/></g><g fill="#315774"><circle cx="65" cy="115" r="6"/><circle cx="95" cy="115" r="6"/><circle cx="80" cy="140" r="6"/><circle cx="173" cy="108" r="6"/><circle cx="203" cy="108" r="6"/><circle cx="173" cy="140" r="6"/><circle cx="203" cy="140" r="6"/><circle cx="314" cy="112" r="6"/><circle cx="288" cy="145" r="14"/><circle cx="340" cy="145" r="14"/><circle cx="442" cy="113" r="7"/><circle cx="474" cy="113" r="7"/><circle cx="458" cy="145" r="9"/><circle cx="570" cy="115" r="8"/><circle cx="603" cy="115" r="8"/><circle cx="586" cy="151" r="10"/></g><g font-family="Arial" font-size="13" font-weight="700" fill="#173a60" text-anchor="middle"><text x="80" y="205">TYPE 1</text><text x="188" y="205">TYPE 2</text><text x="314" y="205">CCS</text><text x="458" y="205">CHAdeMO</text><text x="586" y="205">NACS / GB/T</text><text x="350" y="262" font-weight="400" fill="#5b6d80">Confirm region, AC/DC mode, signalling, current, voltage and vehicle manual</text></g></svg>
