<svg xmlns="http://www.w3.org/2000/svg" width="900" height="560" viewBox="0 0 900 560" role="img" aria-labelledby="title desc"><title id="title">Evacuated-tube solar hot-water collector</title><desc id="desc">A manifold above a row of glass vacuum tubes on an angled frame.</desc><rect width="900" height="560" rx="30" fill="#f4f8fb"/><g transform="translate(115 65)"><rect x="20" width="640" height="92" rx="22" fill="#173f63"/><rect x="50" y="20" width="580" height="50" rx="18" fill="#d8edf4"/><g fill="#cde8f0" stroke="#2784b8" stroke-width="7"><rect x="65" y="70" width="52" height="330" rx="26"/><rect x="145" y="70" width="52" height="330" rx="26"/><rect x="225" y="70" width="52" height="330" rx="26"/><rect x="305" y="70" width="52" height="330" rx="26"/><rect x="385" y="70" width="52" height="330" rx="26"/><rect x="465" y="70" width="52" height="330" rx="26"/><rect x="545" y="70" width="52" height="330" rx="26"/></g><g stroke="#d95e43" stroke-width="10"><path d="M91 86v280M171 86v280M251 86v280M331 86v280M411 86v280M491 86v280M571 86v280"/></g><path d="M10 415h660M55 415l-35 65M615 415l45 65" stroke="#173f63" stroke-width="16"/></g><text x="450" y="520" text-anchor="middle" font-family="Arial" font-size="30" font-weight="700" fill="#173f63">VACUUM TUBES + INSULATED MANIFOLD</text></svg>
