<svg xmlns="http://www.w3.org/2000/svg" width="900" height="560" viewBox="0 0 900 560" role="img" aria-labelledby="title desc"><title id="title">Pumped split solar hot-water system</title><desc id="desc">A separate roof collector connects through flow and return pipes, controller and pump to an indoor cylinder heat exchanger.</desc><rect width="900" height="560" rx="30" fill="#f4f8fb"/><rect x="80" y="85" width="310" height="190" rx="16" fill="#214f66" stroke="#173f63" stroke-width="14"/><path d="M120 105v150M180 105v150M240 105v150M300 105v150M360 105v150" stroke="#d95e43" stroke-width="10"/><path d="M390 135h185v130" fill="none" stroke="#d95e43" stroke-width="14"/><path d="M390 225h125v190h70" fill="none" stroke="#2784b8" stroke-width="14"/><rect x="455" y="280" width="125" height="65" rx="14" fill="#fff" stroke="#173f63" stroke-width="8"/><text x="517" y="320" text-anchor="middle" font-family="Arial" font-size="20" font-weight="700" fill="#173f63">CONTROL</text><circle cx="515" cy="415" r="34" fill="#fff" stroke="#173f63" stroke-width="9"/><path d="m502 397 30 18-30 18z" fill="#f5c43d"/><rect x="585" y="90" width="235" height="370" rx="70" fill="#fff" stroke="#173f63" stroke-width="14"/><path d="M625 300c25-70 130-70 155 0-25 70-130 70-155 0z" fill="none" stroke="#d95e43" stroke-width="14"/><text x="703" y="145" text-anchor="middle" font-family="Arial" font-size="25" font-weight="700" fill="#173f63">CYLINDER</text><text x="450" y="520" text-anchor="middle" font-family="Arial" font-size="28" font-weight="700" fill="#173f63">CONTROLLER + PUMP + HEAT EXCHANGER</text></svg>
