<svg xmlns="http://www.w3.org/2000/svg" width="900" height="560" viewBox="0 0 900 560" role="img" aria-labelledby="title desc"><title id="title">PV-powered water heating</title><desc id="desc">Photovoltaic modules send electrical energy through controls to a cylinder element or heat-pump water heater, unlike a fluid solar-thermal loop.</desc><rect width="900" height="560" rx="30" fill="#f4f8fb"/><g transform="translate(65 120)"><rect width="300" height="210" rx="14" fill="#173f63" stroke="#f5c43d" stroke-width="10"/><path d="M25 42h250M25 84h250M25 126h250M25 168h250M75 18v175M150 18v175M225 18v175" stroke="#72bfd3" stroke-width="5"/></g><path d="M365 225h140" stroke="#f0b800" stroke-width="15" stroke-dasharray="20 12"/><path d="m485 205 38 20-38 20z" fill="#f0b800"/><rect x="475" y="160" width="135" height="130" rx="20" fill="#fff" stroke="#173f63" stroke-width="10"/><path d="m515 205 35-25-10 35h30l-45 45 12-38h-30z" fill="#f5c43d"/><g transform="translate(650 75)"><rect width="190" height="385" rx="60" fill="#fff" stroke="#173f63" stroke-width="13"/><path d="M35 275h120" stroke="#d95e43" stroke-width="17"/><path d="m75 240 42 35-42 35" fill="none" stroke="#d95e43" stroke-width="12"/><text x="95" y="65" text-anchor="middle" font-family="Arial" font-size="22" font-weight="700" fill="#173f63">CYLINDER</text></g><path d="M610 225h40" stroke="#f0b800" stroke-width="15"/><text x="450" y="515" text-anchor="middle" font-family="Arial" font-size="28" font-weight="700" fill="#173f63">ELECTRICITY TO ELEMENT OR HEAT PUMP</text></svg>
