<svg xmlns="http://www.w3.org/2000/svg" width="1200" height="650" viewBox="0 0 1200 650" role="img" aria-labelledby="title desc">
  <title id="title">Solar hot-water system overview</title><desc id="desc">A roof collector circulates heat through a controller and pump to a hot-water cylinder with backup heat and tempered outlets.</desc>
  <rect width="1200" height="650" rx="36" fill="#f5f9fc"/><path d="M70 290 360 95l290 195" fill="#dbe7ef" stroke="#173f63" stroke-width="16" stroke-linejoin="round"/><path d="M130 290h460v275H130z" fill="#fff" stroke="#173f63" stroke-width="12"/>
  <g transform="translate(235 120) rotate(-7)"><rect width="250" height="150" rx="12" fill="#183f58" stroke="#f5c43d" stroke-width="9"/><path d="M20 30h210M20 65h210M20 100h210M55 15v120M105 15v120M155 15v120M205 15v120" stroke="#6fc0d8" stroke-width="5"/></g>
  <path d="M350 276v84h430v65" fill="none" stroke="#d95e43" stroke-width="15"/><path d="M315 276v120h405v70" fill="none" stroke="#2784b8" stroke-width="15"/><circle cx="565" cy="396" r="30" fill="#fff" stroke="#173f63" stroke-width="10"/><path d="m552 379 29 17-29 17z" fill="#f5c43d"/>
  <rect x="485" y="320" width="125" height="62" rx="14" fill="#fff" stroke="#173f63" stroke-width="8"/><text x="547" y="359" text-anchor="middle" font-family="Arial" font-weight="700" font-size="22" fill="#173f63">CONTROL</text>
  <g transform="translate(760 170)"><rect width="265" height="365" rx="70" fill="#fff" stroke="#173f63" stroke-width="12"/><path d="M18 178h229v115H18z" fill="#f6c945" opacity=".35"/><path d="M28 125h209" stroke="#d95e43" stroke-width="12"/><path d="M45 330h175" stroke="#2784b8" stroke-width="12"/><path d="M55 210c40-55 115-55 155 0-40 55-115 55-155 0z" fill="none" stroke="#d95e43" stroke-width="14"/><text x="132" y="55" text-anchor="middle" font-family="Arial" font-weight="700" font-size="24" fill="#173f63">CYLINDER</text><text x="132" y="322" text-anchor="middle" font-family="Arial" font-size="20" fill="#173f63">BACKUP HEAT</text></g>
  <path d="M1025 245h105v-60" fill="none" stroke="#d95e43" stroke-width="14"/><circle cx="1130" cy="160" r="30" fill="#f5c43d"/><text x="1130" y="166" text-anchor="middle" font-family="Arial" font-weight="700" font-size="17" fill="#173f63">MIX</text>
  <g font-family="Arial" font-weight="700" font-size="24" fill="#173f63"><text x="245" y="72">SOLAR-THERMAL COLLECTOR</text><text x="470" y="455">PUMP</text><text x="825" y="585">STORED HOT WATER</text></g>
</svg>
